HIERARCHY
ROOT Hips
{
	OFFSET 0.00000 0.00000 0.00000
	CHANNELS 6 Xposition Yposition Zposition Zrotation Yrotation Xrotation 
	JOINT LHipJoint
	{
		OFFSET 0 0 0
		CHANNELS 3 Zrotation Yrotation Xrotation
		JOINT LeftHip
		{
			OFFSET 1.37590 -1.78394 0.89329
			CHANNELS 3 Zrotation Yrotation Xrotation
			JOINT LeftKnee
			{
				OFFSET 2.47928 -6.81178 0.00000
				CHANNELS 3 Zrotation Yrotation Xrotation
				JOINT LeftAnkle
				{
					OFFSET 2.63345 -7.23535 0.00000
					CHANNELS 3 Zrotation Yrotation Xrotation
					JOINT LeftToe
					{
						OFFSET 0.23938 -0.65768 2.27012
						CHANNELS 3 Zrotation Yrotation Xrotation
						End Site
						{
							OFFSET 0.00000 -0.00000 1.18363
						}
					}
				}
			}
		}
	}
	JOINT RHipJoint
	{
		OFFSET 0 0 0
		CHANNELS 3 Zrotation Yrotation Xrotation
		JOINT RightHip
		{
			OFFSET -1.33617 -1.78394 0.89329
			CHANNELS 3 Zrotation Yrotation Xrotation
			JOINT RightKnee
			{
				OFFSET -2.56922 -7.05888 0.00000
				CHANNELS 3 Zrotation Yrotation Xrotation
				JOINT RightAnkle
				{
					OFFSET -2.56568 -7.04915 0.00000
					CHANNELS 3 Zrotation Yrotation Xrotation
					JOINT RightToe
					{
						OFFSET -0.27533 -0.75646 2.18105
						CHANNELS 3 Zrotation Yrotation Xrotation
						End Site
						{
							OFFSET -0.00000 -0.00000 1.15233
						}
					}
				}
			}
		}
	}
	JOINT lowerback
	{
		OFFSET 0 0 0
		CHANNELS 3 Zrotation Yrotation Xrotation
		JOINT Chest
		{
			OFFSET 0.06190 2.15152 -0.00935
			CHANNELS 3 Zrotation Yrotation Xrotation
			JOINT Chest2
			{
				OFFSET 0.06334 2.15332 0.00872
				CHANNELS 3 Zrotation Yrotation Xrotation
				JOINT lowerneck
				{
					OFFSET 0 0 0
					CHANNELS 3 Zrotation Yrotation Xrotation
					JOINT Neck
					{
						OFFSET -0.04202 1.66908 0.23524
						CHANNELS 3 Zrotation Yrotation Xrotation
						JOINT Head
						{
							OFFSET 0.07510 1.69357 -0.24440
							CHANNELS 3 Zrotation Yrotation Xrotation
							End Site
							{
								OFFSET 0.02556 1.71719 -0.11000
							}
						}
					}
				}
				JOINT LeftCollar
				{
					OFFSET 0 0 0
					CHANNELS 3 Zrotation Yrotation Xrotation
					JOINT LeftShoulder
					{
						OFFSET 3.67168 1.26306 -0.41342
CHANNELS 3 Zrotation Xrotation Yrotation
						JOINT LeftElbow
						{
OFFSET 0 -4.685100 -0.000000
CHANNELS 3 Zrotation Xrotation Yrotation
							JOINT LeftWrist
							{
OFFSET 0 -3.396260 -0.000000
CHANNELS 3 Zrotation Xrotation Yrotation
								JOINT lhand
								{
									OFFSET 0 0 0
CHANNELS 3 Zrotation Xrotation Yrotation
									JOINT LFingers
									{
OFFSET 0 -0.486080 -0.000000
CHANNELS 3 Zrotation Xrotation Yrotation
										End Site
										{
OFFSET 0 -0.391890 -0.000000
										}
									}
								}
								JOINT LThumb
								{
OFFSET 0 0.000000 0.000000
CHANNELS 3 Zrotation Xrotation Yrotation
									End Site
									{
OFFSET 0 -0.397870 0.397870
									}
								}
							}
						}
					}
				}
				JOINT RightCollar
				{
					OFFSET 0 0 0
					CHANNELS 3 Zrotation Yrotation Xrotation
					JOINT RightShoulder
					{
						OFFSET -3.04136 1.42992 -0.76390
CHANNELS 3 Zrotation Xrotation Yrotation
						JOINT RightElbow
						{
OFFSET 0 -5.555760 -0.000000
CHANNELS 3 Zrotation Xrotation Yrotation
							JOINT RightWrist
							{
OFFSET 0 -3.327740 -0.000000
CHANNELS 3 Zrotation Xrotation Yrotation
								JOINT rhand
								{
									OFFSET 0 0 0
CHANNELS 3 Zrotation Xrotation Yrotation
									JOINT RFingers
									{
OFFSET 0 -0.507630 -0.000000
CHANNELS 3 Zrotation Xrotation Yrotation
										End Site
										{
OFFSET 0 -0.409260 -0.000000
										}
									}
								}
								JOINT RThumb
								{
OFFSET 0 0.000000 0.000000
CHANNELS 3 Zrotation Xrotation Yrotation
									End Site
									{
OFFSET 0 -0.415510 0.415510
									}
								}
							}
						}
					}
				}
			}
		}
	}
}
MOTION
Frames: 5
Frame Time: 0.008333333333333333
28.242300 17.665400 5.675600 -28.581100 -81.198200 36.240200 0.000000 0.000000 0.000000 -13.920400 -7.674700 0.355900 4.237000 12.469300 37.412900 0.509600 -5.587400 16.684500 0.492100 -4.497900 -12.481900 0.000000 0.000000 0.000000 22.317700 12.669700 -25.274000 -1.554600 -7.869300 22.317800 0.445100 -11.768500 -5.428900 -0.946900 -6.197200 17.357700 1.623500 -2.047500 -1.349500 4.425000 -2.786000 -2.078100 3.633700 -1.422200 -1.233900 -7.531300 -6.949700 -8.957100 9.679600 -9.581900 9.628900 3.498300 -4.437800 5.197200 -0.000000 0.000000 0.000000 -0.021900 -6.686700 -31.316400 18.570100 -28.881000 4.821500 15.797000 25.825400 -20.896900 0.000000 0.000000 0.000000 -7.125000 0.000000 0.000000 -12.904500 51.170500 1.989700 -0.000000 0.000000 0.000000 -21.831400 -8.818400 37.849000 -103.191300 -59.332200 -71.398300 -24.530200 22.157400 22.292600 0.000000 0.000000 0.000000 7.125000 0.000000 -0.000000 4.639400 54.179300 -1.048400
28.134191 17.673627 5.660624 -29.864969 -80.791604 37.463137 0.000000 0.000000 0.000000 -13.296430 -7.960911 -0.354261 4.524047 12.822163 38.713930 0.664950 -5.242314 18.155341 0.360853 -3.824761 -10.588458 0.000000 0.000000 0.000000 22.979399 12.501817 -24.831796 -1.558135 -7.877784 22.343445 0.436166 -11.702555 -5.866219 -0.936295 -6.163392 17.259233 1.982148 -2.043129 -1.311964 4.501936 -2.782915 -2.082149 3.514279 -1.426571 -1.272593 -7.503020 -6.950600 -8.980239 9.686799 -9.576244 9.522913 3.496693 -4.434201 5.166991 0.000000 0.000000 0.000000 -0.008595 -6.366424 -30.894185 18.174880 -28.378893 4.632921 15.607071 26.100170 -21.492075 0.000000 0.000000 0.000000 -7.125000 0.000000 0.000000 -13.331664 51.729296 2.245767 0.000000 0.000000 0.000000 -21.081839 -8.120965 37.423379 -100.117085 -59.588652 -68.748227 -23.846391 21.498079 22.716678 0.000000 0.000000 0.000000 7.125000 0.000000 0.000000 5.494948 54.489999 -1.287884
28.027054 17.681540 5.645677 -31.219607 -80.395685 38.733806 0.000000 0.000000 0.000000 -12.663068 -8.205414 -1.070274 4.813634 13.166890 40.003284 0.822926 -4.880242 19.556812 0.251331 -3.200894 -8.840610 0.000000 0.000000 0.000000 23.658825 12.324827 -24.367811 -1.559986 -7.882186 22.356786 0.425462 -11.622251 -6.286980 -0.929344 -6.141174 17.194594 2.357553 -2.029566 -1.336833 4.574275 -2.773920 -2.021196 3.376217 -1.427887 -1.210598 -7.515220 -6.961606 -9.004091 9.757830 -9.583577 9.377272 3.520494 -4.435340 5.131187 0.000000 0.000000 0.000000 0.024835 -6.146920 -30.399432 17.754653 -27.840017 4.435063 15.256134 26.342682 -21.442903 0.000000 0.000000 0.000000 -7.125000 0.000000 0.000000 -13.651888 51.623534 2.259750 0.000000 0.000000 0.000000 -20.355002 -7.454933 36.966213 -97.061796 -59.793205 -66.110801 -23.377460 20.950066 23.232081 0.000000 0.000000 0.000000 7.125000 0.000000 0.000000 6.166765 54.936700 -1.512438
27.921130 17.689060 5.630765 -32.662811 -80.013127 40.064210 0.000000 0.000000 0.000000 -12.017952 -8.397722 -1.793612 5.106401 13.501435 41.278026 0.984189 -4.496913 20.871468 0.168996 -2.638691 -7.274964 0.000000 0.000000 0.000000 24.360438 12.136441 -23.876566 -1.559729 -7.881479 22.354730 0.412543 -11.523976 -6.687020 -0.926966 -6.133461 17.172291 2.753929 -2.004500 -1.439800 4.640863 -2.757531 -1.878893 3.214826 -1.425380 -1.022597 -7.578079 -6.985258 -9.028836 9.908745 -9.607165 9.182009 3.576090 -4.442410 5.088381 0.000000 0.000000 0.000000 0.083453 -6.053531 -29.813897 17.303130 -27.255126 4.225595 14.703700 26.544823 -20.587355 0.000000 0.000000 0.000000 -7.125000 0.000000 0.000000 -13.838282 50.686100 1.970775 0.000000 0.000000 0.000000 -19.656603 -6.828199 36.469569 -94.030194 -59.932808 -63.489202 -23.177440 20.541349 23.861771 0.000000 0.000000 0.000000 7.125000 0.000000 0.000000 6.608647 55.553599 -1.718307
27.817491 17.695495 5.619223 -33.637834 -79.733455 40.905821 0.000000 0.000000 0.000000 -11.522140 -8.526881 -2.505815 5.406305 13.822906 42.541292 1.031604 -4.268883 21.176054 0.133765 -2.348890 -6.471311 0.000000 0.000000 0.000000 24.927249 11.820332 -23.380069 -1.549594 -7.857020 22.280733 0.392259 -11.325956 -6.967960 -0.917051 -6.101426 17.079019 3.037943 -1.961790 -1.344818 4.683813 -2.700089 -1.843473 3.103906 -1.400777 -1.052529 -7.579333 -7.011480 -9.007335 9.930396 -9.634979 9.056629 3.582186 -4.457131 5.049971 0.000000 0.000000 0.000000 0.095139 -5.787485 -29.177720 16.888090 -26.708202 4.037937 14.306909 27.121851 -20.855268 0.000000 0.000000 0.000000 -7.125000 0.000000 0.000000 -14.328651 50.885146 2.117722 0.000000 0.000000 0.000000 -18.967796 -6.168064 35.969157 -90.592817 -59.971352 -60.513156 -22.682638 19.939365 24.318691 0.000000 0.000000 0.000000 7.125000 0.000000 0.000000 7.313053 55.924876 -1.971336
